{"glyphs":{"0":{"ha":926,"x_min":0,"x_max":0,"o":"m 398 -19 b 95 504 153 -19 40 173 b 570 1024 150 834 327 1024 b 873 504 812 1024 928 834 b 398 -19 818 173 641 -19 m 423 135 b 689 504 549 135 648 262 b 545 872 729 745 670 872 b 280 504 419 872 320 745 b 423 135 240 261 297 135 "},"1":{"ha":668,"x_min":0,"x_max":0,"o":"m 437 0 l 254 0 l 393 832 l 387 832 l 125 681 l 153 849 l 431 1010 l 605 1010 "},"2":{"ha":863,"x_min":0,"x_max":0,"o":"m 49 132 l 456 476 b 649 722 573 578 634 638 b 508 875 664 817 605 875 b 312 708 408 875 329 810 l 138 708 b 535 1024 170 900 334 1024 b 826 731 739 1024 854 900 b 509 337 806 617 736 526 l 306 160 l 305 153 l 744 153 l 719 0 l 27 0 "},"3":{"ha":905,"x_min":0,"x_max":0,"o":"m 396 -14 b 67 275 179 -14 41 104 l 250 275 b 403 140 240 193 303 140 b 624 300 514 140 609 205 b 449 445 637 388 575 445 l 356 445 l 379 586 l 464 586 b 671 744 569 586 655 650 b 545 875 685 823 639 875 b 339 738 450 875 354 823 l 164 738 b 554 1024 194 907 363 1024 b 846 734 760 1024 871 888 b 626 524 828 620 742 548 l 626 518 b 807 270 758 498 828 399 b 396 -14 779 101 611 -14 "},"4":{"ha":925,"x_min":0,"x_max":0,"o":"m 64 333 l 605 1010 l 833 1010 l 721 338 l 851 338 l 826 187 l 696 187 l 665 0 l 490 0 l 521 187 l 40 187 m 626 803 l 618 803 l 253 346 l 252 338 l 549 338 "},"5":{"ha":878,"x_min":0,"x_max":0,"o":"m 376 -14 b 74 275 179 -14 52 108 l 252 275 b 400 134 245 192 309 134 b 618 327 509 134 599 214 b 460 524 637 442 571 524 b 291 462 400 524 331 500 l 130 489 l 269 1010 l 855 1010 l 831 857 l 396 857 l 322 589 l 328 589 b 533 666 373 634 451 666 b 795 332 716 666 828 526 b 376 -14 763 131 590 -14 "},"6":{"ha":900,"x_min":0,"x_max":0,"o":"m 404 -14 b 92 487 206 -13 29 111 b 569 1024 149 828 330 1024 b 872 739 759 1024 878 903 l 696 739 b 559 866 694 817 646 866 b 273 518 418 866 312 737 l 281 528 b 549 663 344 615 444 663 b 815 324 731 663 848 520 b 404 -14 782 129 617 -15 m 410 134 b 640 340 521 134 622 225 b 494 524 656 443 597 524 b 261 319 382 524 279 430 b 410 134 246 217 306 134 "},"7":{"ha":815,"x_min":0,"x_max":0,"o":"m 634 850 l 636 857 l 137 857 l 162 1010 l 850 1010 l 824 854 l 254 0 l 64 0 "},"8":{"ha":897,"x_min":0,"x_max":0,"o":"m 388 -14 b 54 275 165 -14 27 111 b 305 522 75 400 184 503 l 305 528 b 172 758 205 551 152 647 b 549 1024 200 913 356 1024 b 847 749 747 1024 873 906 b 634 528 828 636 739 550 l 634 522 b 804 266 749 502 827 395 b 388 -14 777 104 604 -14 m 402 127 b 620 289 519 127 605 193 b 463 449 636 384 569 449 b 244 279 353 449 260 378 b 402 127 229 187 291 127 m 478 587 b 668 741 575 587 652 652 b 536 881 683 828 629 881 b 346 731 437 881 361 820 b 478 587 331 644 388 587 "},"9":{"ha":900,"x_min":0,"x_max":0,"o":"m 540 1024 b 851 526 738 1023 914 900 b 374 -14 794 182 614 -14 b 71 274 183 -14 66 108 l 248 274 b 384 145 250 192 297 145 b 670 495 525 145 632 273 l 662 484 b 394 350 599 398 500 350 b 129 688 212 350 96 493 b 540 1024 162 882 326 1025 m 533 876 b 303 672 422 876 321 786 b 450 489 288 569 347 489 b 682 693 561 489 665 583 b 533 876 698 794 638 876 "},"A":{"ha":1005,"x_min":0,"x_max":0,"o":"m -29 0 l 494 1010 l 720 1010 l 908 0 l 713 0 l 671 249 l 291 249 l 166 0 m 646 396 l 578 803 l 570 803 l 365 396 "},"Ä":{"ha":1005,"x_min":0,"x_max":0,"o":"m -29 0 l 494 1010 l 720 1010 l 908 0 l 713 0 l 671 249 l 291 249 l 166 0 m 646 396 l 578 803 l 570 803 l 365 396 m 785 1122 b 697 1226 729 1122 688 1169 b 796 1308 705 1272 750 1308 b 884 1203 854 1308 893 1262 b 785 1122 877 1159 835 1122 m 489 1122 b 401 1226 434 1122 393 1170 b 500 1308 408 1272 454 1308 b 588 1203 558 1308 597 1262 b 489 1122 581 1159 539 1122 "},"B":{"ha":913,"x_min":0,"x_max":0,"o":"m 204 1010 l 591 1010 b 874 748 810 1010 900 899 b 663 533 853 626 764 557 l 661 523 b 836 275 767 518 861 428 b 445 0 810 118 676 0 l 36 0 m 442 153 b 653 290 574 153 639 210 b 496 449 667 380 609 449 l 294 449 l 245 153 m 498 581 b 688 725 592 581 674 636 b 547 859 701 803 654 859 l 362 859 l 317 581 "},"C":{"ha":1033,"x_min":0,"x_max":0,"o":"m 830 669 b 629 860 829 790 748 860 b 277 494 459 860 316 727 b 491 150 240 268 333 150 b 773 335 618 150 730 218 l 957 335 b 482 -14 897 143 718 -14 b 97 516 211 -14 43 184 b 634 1024 151 838 375 1024 b 1011 669 862 1024 1017 894 "},"D":{"ha":1006,"x_min":0,"x_max":0,"o":"m 36 0 l 204 1010 l 548 1010 b 951 496 849 1010 1004 815 b 384 0 900 185 691 0 m 393 158 b 773 516 603 158 734 279 b 521 852 811 743 727 852 l 361 852 l 246 158 "},"E":{"ha":844,"x_min":0,"x_max":0,"o":"m 204 1010 l 861 1010 l 836 857 l 362 857 l 316 582 l 756 582 l 730 429 l 291 429 l 245 153 l 723 153 l 697 0 l 36 0 "},"F":{"ha":813,"x_min":0,"x_max":0,"o":"m 204 1010 l 851 1010 l 826 857 l 362 857 l 316 582 l 736 582 l 710 429 l 291 429 l 219 0 l 36 0 "},"G":{"ha":1049,"x_min":0,"x_max":0,"o":"m 827 688 b 629 860 813 794 751 860 b 280 506 466 860 317 733 b 498 150 242 277 328 150 b 795 386 650 150 769 242 l 562 386 l 586 529 l 996 529 l 976 407 b 477 -14 933 147 727 -14 b 96 504 198 -14 42 184 b 644 1024 148 830 379 1024 b 1013 688 867 1024 1016 886 l 827 688 "},"H":{"ha":1033,"x_min":0,"x_max":0,"o":"m 204 1010 l 387 1010 l 316 582 l 784 582 l 855 1010 l 1039 1010 l 871 0 l 688 0 l 759 429 l 291 429 l 219 0 l 36 0 "},"I":{"ha":382,"x_min":0,"x_max":0,"o":"m 219 0 l 36 0 l 204 1010 l 387 1010 "},"J":{"ha":779,"x_min":0,"x_max":0,"o":"m 784 1010 l 666 297 b 293 -14 634 103 490 -14 b 23 268 114 -14 -8 82 l 202 268 b 316 137 191 184 235 137 b 486 302 405 137 467 196 l 603 1010 "},"K":{"ha":940,"x_min":0,"x_max":0,"o":"m 204 1010 l 387 1010 l 311 546 l 323 546 l 794 1010 l 1017 1010 l 552 557 l 853 0 l 633 0 l 405 433 l 270 300 l 219 0 l 36 0 "},"L":{"ha":786,"x_min":0,"x_max":0,"o":"m 204 1010 l 387 1010 l 245 153 l 690 153 l 664 0 l 36 0 "},"M":{"ha":1259,"x_min":0,"x_max":0,"o":"m 428 1010 l 607 278 l 619 278 l 1040 1010 l 1264 1010 l 1096 0 l 920 0 l 1036 694 l 1027 694 l 632 3 l 502 3 l 338 695 l 328 695 l 212 0 l 36 0 l 204 1010 "},"N":{"ha":1029,"x_min":0,"x_max":0,"o":"m 867 0 l 704 0 l 342 688 l 334 688 l 219 0 l 36 0 l 204 1010 l 368 1010 l 729 322 l 738 322 l 852 1010 l 1034 1010 "},"O":{"ha":1076,"x_min":0,"x_max":0,"o":"m 1021 493 b 484 -14 967 172 743 -14 b 97 515 213 -14 42 184 b 636 1024 150 836 374 1024 b 1021 493 905 1024 1076 826 m 841 515 b 628 860 878 740 787 860 b 277 493 457 860 315 728 b 490 150 238 268 332 150 b 841 515 660 150 802 281 "},"Ö":{"ha":1076,"x_min":0,"x_max":0,"o":"m 1021 493 b 484 -14 967 172 743 -14 b 97 515 213 -14 42 184 b 636 1024 150 836 374 1024 b 1021 493 905 1024 1076 826 m 841 515 b 628 860 878 740 787 860 b 277 493 457 860 315 728 b 490 150 238 268 332 150 b 841 515 660 150 802 281 m 819 1122 b 731 1226 763 1122 722 1169 b 830 1308 739 1272 784 1308 b 918 1203 888 1308 927 1262 b 819 1122 911 1159 869 1122 m 523 1122 b 435 1226 468 1122 427 1170 b 534 1308 442 1272 488 1308 b 622 1203 592 1308 631 1262 b 523 1122 615 1159 573 1122 "},"P":{"ha":893,"x_min":0,"x_max":0,"o":"m 204 1010 l 583 1010 b 883 676 815 1010 915 869 b 469 341 851 481 703 341 l 276 341 l 219 0 l 36 0 m 470 492 b 697 676 606 492 680 569 b 530 857 714 784 667 857 l 362 857 l 301 492 "},"Q":{"ha":1088,"x_min":0,"x_max":0,"o":"m 1021 493 b 804 98 992 319 912 184 l 937 -87 l 759 -87 l 679 24 b 484 -14 618 -1 552 -14 b 97 515 213 -14 42 184 b 636 1024 150 836 374 1024 b 1021 493 905 1024 1076 826 m 630 339 l 705 236 b 841 515 771 297 820 392 b 628 860 878 740 787 860 b 277 493 457 860 315 728 b 490 150 238 268 332 150 b 586 165 523 150 556 155 l 465 339 "},"R":{"ha":909,"x_min":0,"x_max":0,"o":"m 204 1010 l 583 1010 b 885 687 815 1010 917 881 b 656 400 863 550 783 448 l 808 0 l 604 0 l 467 370 l 281 370 l 219 0 l 36 0 m 475 522 b 699 687 611 522 682 580 b 530 857 716 795 666 857 l 362 857 l 306 522 "},"S":{"ha":902,"x_min":0,"x_max":0,"o":"m 706 727 b 539 869 708 819 648 869 b 335 737 425 869 348 814 b 484 598 320 654 404 618 l 575 575 b 822 284 720 539 851 459 b 390 -15 792 106 632 -15 b 50 298 155 -15 24 98 l 230 298 b 414 141 219 192 300 141 b 639 285 534 141 625 199 b 480 425 653 363 585 398 l 371 455 b 147 726 212 498 123 581 b 567 1024 177 905 355 1024 b 882 727 782 1024 906 903 l 706 727 "},"T":{"ha":916,"x_min":0,"x_max":0,"o":"m 160 1010 l 966 1010 l 940 857 l 628 857 l 486 0 l 304 0 l 446 857 l 134 857 "},"U":{"ha":1019,"x_min":0,"x_max":0,"o":"m 1024 1010 l 914 350 b 444 -15 879 133 690 -15 b 95 350 196 -15 59 133 l 204 1010 l 387 1010 l 280 365 b 472 148 260 239 332 148 b 734 365 611 148 714 239 l 841 1010 "},"Ü":{"ha":1019,"x_min":0,"x_max":0,"o":"m 1024 1010 l 914 350 b 444 -15 879 133 690 -15 b 95 350 196 -15 59 133 l 204 1010 l 387 1010 l 280 365 b 472 148 260 239 332 148 b 734 365 611 148 714 239 l 841 1010 m 791 1122 b 702 1226 735 1122 693 1169 b 801 1308 711 1272 755 1308 b 889 1203 860 1308 899 1262 b 791 1122 882 1159 840 1122 m 495 1122 b 406 1226 439 1122 398 1170 b 505 1308 414 1272 459 1308 b 593 1203 564 1308 603 1262 b 495 1122 586 1159 544 1122 "},"V":{"ha":1005,"x_min":0,"x_max":0,"o":"m 471 215 l 481 215 l 875 1010 l 1076 1010 l 552 0 l 327 0 l 139 1010 l 339 1010 "},"W":{"ha":1398,"x_min":0,"x_max":0,"o":"m 132 1010 l 328 1010 l 388 268 l 397 268 l 714 1010 l 893 1010 l 965 267 l 974 267 l 1279 1010 l 1476 1010 l 1023 0 l 842 0 l 759 709 l 751 709 l 430 0 l 249 0 "},"X":{"ha":959,"x_min":0,"x_max":0,"o":"m 514 640 l 522 640 l 806 1010 l 1019 1010 l 625 505 l 857 0 l 648 0 l 484 367 l 476 367 l 190 0 l -24 0 l 380 505 l 147 1010 l 352 1010 "},"Y":{"ha":979,"x_min":0,"x_max":0,"o":"m 342 1010 l 515 563 l 526 563 l 846 1010 l 1053 1010 l 580 377 l 517 0 l 335 0 l 398 377 l 135 1010 "},"Z":{"ha":907,"x_min":0,"x_max":0,"o":"m 37 114 l 678 857 l 157 857 l 182 1010 l 930 1010 l 912 896 l 270 153 l 791 153 l 765 0 l 18 0 "},"a":{"ha":798,"x_min":0,"x_max":0,"o":"m 245 -15 b 29 213 101 -15 4 64 b 354 443 57 383 205 427 b 553 511 490 457 545 461 l 553 514 b 447 631 565 588 530 631 b 273 535 360 631 299 587 l 111 558 b 467 767 172 696 308 767 b 731 507 611 767 764 707 l 647 0 l 475 0 l 493 104 l 487 104 b 245 -15 444 40 363 -15 m 312 116 b 514 272 419 116 500 187 l 529 361 b 360 324 503 342 406 330 b 202 216 278 313 212 285 b 312 116 191 150 238 116 "},"ä":{"ha":798,"x_min":0,"x_max":0,"o":"m 245 -15 b 29 213 101 -15 4 64 b 354 443 57 383 205 427 b 553 511 490 457 545 461 l 553 514 b 447 631 565 588 530 631 b 273 535 360 631 299 587 l 111 558 b 467 767 172 696 308 767 b 731 507 611 767 764 707 l 647 0 l 475 0 l 493 104 l 487 104 b 245 -15 444 40 363 -15 m 312 116 b 514 272 419 116 500 187 l 529 361 b 360 324 503 342 406 330 b 202 216 278 313 212 285 b 312 116 191 150 238 116 m 649 869 b 561 973 593 869 551 916 b 659 1055 569 1020 614 1055 b 748 951 718 1055 757 1009 b 649 869 741 907 698 869 m 353 869 b 265 973 297 869 256 917 b 363 1055 272 1020 318 1055 b 452 951 422 1055 461 1009 b 353 869 445 907 402 869 "},"b":{"ha":875,"x_min":0,"x_max":0,"o":"m 204 1010 l 383 1010 l 321 632 l 328 632 b 567 767 364 687 434 767 b 815 378 742 767 857 630 b 437 -13 774 128 616 -13 b 243 119 307 -13 262 64 l 232 119 l 212 0 l 36 0 m 275 379 b 413 133 251 232 299 133 b 633 379 530 133 609 237 b 493 621 655 520 612 621 b 275 379 378 621 298 526 "},"c":{"ha":802,"x_min":0,"x_max":0,"o":"m 357 -15 b 59 376 130 -15 21 146 b 486 767 96 607 264 767 b 766 495 671 767 781 659 l 595 495 b 465 623 594 568 550 623 b 240 379 354 623 264 532 b 383 131 215 224 271 131 b 557 259 461 131 527 178 l 727 259 b 357 -15 686 98 547 -15 "},"ç":{"ha":802,"x_min":0,"x_max":0,"o":"m 396 -38 b 486 -157 456 -47 499 -85 b 218 -312 472 -250 374 -312 l 231 -224 b 366 -161 307 -224 357 -204 b 276 -95 374 -119 345 -103 l 308 -12 b 59 376 115 9 24 164 b 486 767 96 607 264 767 b 766 495 671 767 781 659 l 595 495 b 465 623 594 568 550 623 b 240 379 354 623 264 532 b 383 131 215 224 271 131 b 557 259 461 131 527 178 l 727 259 b 405 -12 690 111 571 5 "},"d":{"ha":876,"x_min":0,"x_max":0,"o":"m 309 -13 b 61 378 130 -13 20 128 b 438 767 103 630 263 767 b 632 632 572 767 614 687 l 640 632 l 702 1010 l 881 1010 l 714 0 l 538 0 l 558 119 l 547 119 b 309 -13 510 64 438 -13 m 380 133 b 602 379 494 133 577 232 b 461 621 626 526 576 621 b 243 379 342 621 266 520 b 380 133 219 237 262 133 "},"e":{"ha":824,"x_min":0,"x_max":0,"o":"m 362 -15 b 59 374 134 -15 19 137 b 483 767 98 608 266 767 b 765 385 669 767 809 650 l 757 330 l 228 330 l 228 327 b 388 124 206 185 267 124 b 565 222 466 124 529 157 l 728 203 b 362 -15 674 72 539 -15 m 604 450 b 463 628 621 553 566 628 b 250 450 360 628 270 541 "},"f":{"ha":524,"x_min":0,"x_max":0,"o":"m 516 619 l 358 619 l 255 0 l 76 0 l 180 619 l 68 619 l 91 758 l 203 758 l 215 829 b 489 1057 239 982 358 1057 b 620 1037 551 1057 599 1045 l 562 899 b 498 909 547 903 526 909 b 391 817 431 909 401 876 l 381 758 l 539 758 "},"g":{"ha":869,"x_min":0,"x_max":0,"o":"m 311 -300 b 6 -109 117 -300 23 -215 l 174 -70 b 334 -165 189 -114 225 -165 b 537 -7 435 -165 519 -119 l 559 136 l 550 136 b 313 11 515 80 442 11 b 62 381 138 11 21 134 b 438 767 103 630 263 767 b 634 632 572 767 616 687 l 643 632 l 664 758 l 840 758 l 713 -12 b 311 -300 681 -207 514 -300 m 384 151 b 602 382 497 151 579 238 b 461 621 625 526 575 621 b 244 382 341 621 266 520 b 384 151 221 243 265 151 "},"h":{"ha":851,"x_min":0,"x_max":0,"o":"m 208 0 l 29 0 l 197 1010 l 372 1010 l 309 629 l 318 629 b 567 767 366 715 449 767 b 780 482 723 767 810 666 l 699 0 l 520 0 l 596 455 b 474 617 613 557 567 617 b 281 444 379 617 300 553 "},"i":{"ha":362,"x_min":0,"x_max":0,"o":"m 155 758 l 333 758 l 207 0 l 29 0 m 270 866 b 175 963 214 866 170 909 b 287 1060 180 1017 229 1060 b 381 963 343 1060 386 1017 b 270 866 377 909 327 866 "},"j":{"ha":362,"x_min":0,"x_max":0,"o":"m 333 758 l 200 -43 b -105 -284 173 -207 63 -284 b -140 -283 -116 -284 -127 -284 l -115 -138 b -90 -139 -107 -138 -99 -139 b 23 -41 -21 -139 11 -105 l 155 758 m 268 865 b 172 962 211 865 168 908 b 284 1059 177 1016 227 1059 b 379 962 341 1059 383 1016 b 268 865 375 908 325 865 "},"k":{"ha":790,"x_min":0,"x_max":0,"o":"m 196 1010 l 375 1010 l 283 453 l 294 453 l 618 758 l 827 758 l 478 430 l 718 0 l 504 0 l 326 324 l 250 255 l 207 0 l 29 0 "},"l":{"ha":362,"x_min":0,"x_max":0,"o":"m 207 0 l 29 0 l 196 1010 l 375 1010 "},"m":{"ha":1247,"x_min":0,"x_max":0,"o":"m 155 758 l 327 758 l 305 629 l 314 629 b 546 767 360 715 444 767 b 727 629 648 767 713 715 l 735 629 b 986 767 782 713 876 767 b 1179 509 1125 767 1207 677 l 1094 0 l 916 0 l 997 481 b 889 617 1011 575 961 617 b 729 472 803 617 742 558 l 650 0 l 474 0 l 556 488 b 450 617 568 567 526 617 b 285 461 373 617 300 553 l 208 0 l 29 0 "},"n":{"ha":847,"x_min":0,"x_max":0,"o":"m 208 0 l 29 0 l 155 758 l 327 758 l 305 629 l 314 629 b 563 767 362 714 450 767 b 775 482 718 767 805 664 l 694 0 l 516 0 l 591 455 b 471 617 608 555 564 617 b 281 444 377 617 300 553 "},"o":{"ha":844,"x_min":0,"x_max":0,"o":"m 361 -15 b 60 380 137 -15 21 144 b 482 767 97 613 262 767 b 783 371 705 767 822 609 b 361 -15 745 139 581 -15 m 376 128 b 605 381 500 128 581 240 b 468 626 626 517 586 626 b 239 372 343 626 261 513 b 376 128 216 235 256 128 "},"ö":{"ha":844,"x_min":0,"x_max":0,"o":"m 361 -15 b 60 380 137 -15 21 144 b 482 767 97 613 262 767 b 783 371 705 767 822 609 b 361 -15 745 139 581 -15 m 376 128 b 605 381 500 128 581 240 b 468 626 626 517 586 626 b 239 372 343 626 261 513 b 376 128 216 235 256 128 m 662 869 b 574 973 606 869 564 916 b 672 1055 582 1020 626 1055 b 761 951 731 1055 770 1009 b 662 869 754 907 711 869 m 366 869 b 278 973 310 869 269 917 b 376 1055 285 1020 330 1055 b 465 951 435 1055 474 1009 b 366 869 458 907 415 869 "},"p":{"ha":870,"x_min":0,"x_max":0,"o":"m 156 758 l 332 758 l 312 632 l 322 632 b 561 767 357 687 427 767 b 809 378 735 767 850 630 b 432 -13 767 128 609 -13 b 237 119 301 -13 255 64 l 229 119 l 162 -284 l -18 -284 m 268 379 b 406 133 244 232 292 133 b 627 379 524 133 602 237 b 487 621 649 520 605 621 b 268 379 371 621 291 526 "},"q":{"ha":868,"x_min":0,"x_max":0,"o":"m 554 119 l 546 119 b 308 -13 509 64 438 -13 b 60 378 129 -13 19 128 b 437 767 102 630 262 767 b 631 632 571 767 613 687 l 642 632 l 663 758 l 838 758 l 666 -284 l 487 -284 m 381 133 b 600 379 496 133 576 232 b 462 621 625 526 577 621 b 242 379 343 621 265 520 b 381 133 218 237 264 133 "},"r":{"ha":552,"x_min":0,"x_max":0,"o":"m 155 758 l 328 758 l 307 631 l 315 631 b 525 768 356 719 438 768 b 588 763 545 768 571 767 l 561 599 b 478 610 545 605 509 610 b 281 445 381 610 297 542 l 207 0 l 29 0 "},"s":{"ha":763,"x_min":0,"x_max":0,"o":"m 555 540 b 436 634 550 590 516 634 b 285 541 359 634 292 595 b 374 459 277 501 301 476 l 500 431 b 681 220 638 400 699 332 b 324 -15 657 80 510 -15 b 30 207 135 -15 30 68 l 206 223 b 333 120 210 155 255 120 b 497 217 422 119 489 163 b 411 297 504 257 479 282 l 287 325 b 106 544 146 356 87 431 b 445 767 129 681 265 767 b 720 557 625 767 716 686 "},"t":{"ha":528,"x_min":0,"x_max":0,"o":"m 510 619 l 360 619 l 295 228 b 362 140 284 156 317 140 b 415 147 384 140 404 145 l 423 7 b 314 -10 401 1 364 -9 b 112 198 179 -14 88 56 l 182 619 l 75 619 l 98 758 l 205 758 l 235 939 l 413 939 l 383 758 l 533 758 "},"u":{"ha":845,"x_min":0,"x_max":0,"o":"m 638 758 l 816 758 l 690 0 l 517 0 l 540 135 l 532 135 b 279 -10 484 50 393 -10 b 74 275 130 -10 44 93 l 155 758 l 333 758 l 257 303 b 375 146 243 207 290 146 b 564 319 454 146 545 203 "},"ü":{"ha":845,"x_min":0,"x_max":0,"o":"m 638 758 l 816 758 l 690 0 l 517 0 l 540 135 l 532 135 b 279 -10 484 50 393 -10 b 74 275 130 -10 44 93 l 155 758 l 333 758 l 257 303 b 375 146 243 207 290 146 b 564 319 454 146 545 203 m 662 869 b 574 973 607 869 565 916 b 673 1055 582 1020 627 1055 b 761 951 731 1055 770 1009 b 662 869 754 907 712 869 m 366 869 b 278 973 311 869 270 917 b 377 1055 286 1020 331 1055 b 465 951 436 1055 474 1009 b 366 869 458 907 416 869 "},"v":{"ha":800,"x_min":0,"x_max":0,"o":"m 436 0 l 238 0 l 95 758 l 278 758 l 359 195 l 367 195 l 635 758 l 832 758 "},"w":{"ha":1163,"x_min":0,"x_max":0,"o":"m 97 758 l 279 758 l 324 225 l 330 225 l 555 758 l 735 758 l 783 228 l 790 228 l 1010 758 l 1193 758 l 852 0 l 666 0 l 609 512 l 598 512 l 371 0 l 185 0 "},"x":{"ha":781,"x_min":0,"x_max":0,"o":"m 407 478 l 609 758 l 798 758 l 507 379 l 676 0 l 488 0 l 373 273 l 169 0 l -21 0 l 273 379 l 111 758 l 301 758 "},"y":{"ha":800,"x_min":0,"x_max":0,"o":"m 93 -284 b -20 -265 44 -284 2 -275 l 45 -126 b 217 -54 118 -149 168 -140 l 240 -13 l 95 758 l 277 758 l 356 184 l 364 184 l 635 758 l 832 758 l 388 -91 b 93 -284 324 -214 231 -284 "},"z":{"ha":782,"x_min":0,"x_max":0,"o":"m 38 113 l 509 603 l 511 610 l 134 610 l 159 758 l 755 758 l 735 636 l 284 154 l 282 148 l 666 148 l 642 0 l 19 0 "},"$":{"ha":902,"x_min":0,"x_max":0,"o":"m 351 -14 b 50 298 140 -2 25 109 l 230 298 b 376 143 220 205 283 153 l 426 440 l 371 455 b 147 726 212 498 123 581 b 522 1022 175 892 330 1007 l 541 1136 l 622 1136 l 603 1023 b 882 727 796 1010 905 893 l 706 727 b 577 867 708 807 662 856 l 531 586 l 575 575 b 822 284 720 539 851 459 b 432 -14 794 116 651 -1 l 413 -126 l 332 -126 m 458 144 b 639 285 555 156 627 210 b 503 419 652 358 595 392 l 458 144 m 496 866 b 335 737 406 854 346 804 b 453 607 322 664 384 628 "},"£":{"ha":914,"x_min":0,"x_max":0,"o":"m 33 0 l 58 153 l 114 153 b 194 287 163 160 186 233 l 209 399 l 95 399 l 121 548 l 228 548 l 250 718 b 612 1024 276 918 438 1024 b 870 729 812 1024 915 893 l 701 744 b 591 873 722 834 663 873 b 429 718 518 873 447 824 l 407 548 l 635 548 l 609 399 l 387 399 l 374 295 b 310 153 367 237 348 190 l 770 153 l 745 0 "},"€":{"ha":943,"x_min":0,"x_max":0,"o":"m 723 554 l 377 554 b 367 504 374 538 370 521 b 361 456 364 487 363 471 l 661 456 l 594 349 l 360 349 b 558 151 373 215 447 151 b 767 225 645 151 719 191 l 812 78 b 531 -14 731 17 632 -14 b 175 349 321 -14 185 119 l 34 349 l 89 456 l 179 456 b 185 504 180 472 182 488 b 195 554 188 521 191 538 l 68 554 l 123 659 l 225 659 b 702 1024 312 890 493 1024 b 955 928 808 1024 894 989 l 863 781 b 676 859 822 819 763 859 b 411 659 565 859 469 794 l 787 659 "},"&":{"ha":920,"x_min":0,"x_max":0,"o":"m 328 -15 b 43 268 122 -15 16 108 b 277 538 62 387 151 460 b 212 773 230 609 197 683 b 518 1022 236 916 359 1022 b 737 793 677 1022 758 916 b 564 563 721 697 658 624 l 493 516 l 641 300 b 712 476 676 350 701 409 l 866 476 b 729 172 843 336 789 238 l 847 0 l 654 0 l 602 74 b 328 -15 521 13 418 -15 m 354 425 l 335 413 b 219 276 260 364 225 311 b 359 132 207 196 260 132 b 523 185 412 132 470 151 m 483 664 b 583 785 542 698 575 734 b 496 876 591 829 560 876 b 370 770 432 876 378 826 b 420 625 363 724 386 677 "},"!":{"ha":429,"x_min":0,"x_max":0,"o":"m 280 297 l 122 297 l 224 1010 l 414 1010 m 163 -11 b 60 98 102 -11 57 37 b 175 204 63 157 115 204 b 277 98 233 204 281 156 b 163 -11 273 37 220 -11 "},"?":{"ha":756,"x_min":0,"x_max":0,"o":"m 252 313 b 437 596 282 488 343 542 b 568 750 503 634 557 681 b 454 878 581 828 530 878 b 290 741 384 878 309 834 l 114 741 b 478 1024 151 928 305 1024 b 752 753 666 1024 780 919 b 565 512 733 640 664 565 b 416 313 476 464 434 416 l 413 297 l 249 297 m 295 -11 b 192 98 234 -11 189 37 b 307 204 195 157 247 204 b 409 98 365 204 413 156 b 295 -11 405 37 353 -11 "},"(":{"ha":546,"x_min":0,"x_max":0,"o":"m 142 412 b 441 1039 182 658 281 863 l 609 1039 b 327 412 487 908 367 646 b 401 -215 288 178 323 -84 l 233 -215 b 142 412 133 -39 101 166 "},")":{"ha":546,"x_min":0,"x_max":0,"o":"m 416 412 b 116 -215 375 166 276 -39 l -51 -215 b 230 412 71 -85 190 178 b 156 1038 269 646 235 908 l 324 1038 b 416 412 424 863 456 658 "},"[":{"ha":546,"x_min":0,"x_max":0,"o":"m 261 1039 l 618 1039 l 595 902 l 410 902 l 249 -78 l 433 -78 l 410 -215 l 54 -215 "},"]":{"ha":546,"x_min":0,"x_max":0,"o":"m 296 -215 l -61 -215 l -37 -78 l 147 -78 l 309 902 l 124 902 l 147 1038 l 504 1038 "},"{":{"ha":546,"x_min":0,"x_max":0,"o":"m 410 -215 b 142 58 213 -215 107 -165 l 162 183 b 36 329 179 287 149 329 l 35 329 l 62 495 l 64 495 b 240 641 177 495 223 537 l 259 766 b 618 1039 295 989 421 1039 l 595 902 b 427 752 479 902 443 855 l 400 590 b 207 421 387 513 346 447 l 204 402 b 341 234 334 376 353 311 l 314 72 b 433 -78 297 -31 317 -78 l 410 -215 "},"}":{"ha":546,"x_min":0,"x_max":0,"o":"m 147 1038 b 415 766 344 1038 451 989 l 395 641 b 521 495 379 537 408 495 l 523 495 l 495 329 l 493 329 b 318 183 381 329 334 287 l 298 57 b -61 -215 262 -165 137 -215 l -37 -78 b 130 72 78 -78 114 -32 l 158 233 b 351 403 170 311 211 376 l 354 421 b 216 590 223 447 204 513 l 243 752 b 124 902 260 855 240 902 l 147 1038 "},"#":{"ha":893,"x_min":0,"x_max":0,"o":"m 532 260 l 315 260 l 267 0 l 129 0 l 177 260 l 34 260 l 59 399 l 202 399 l 240 612 l 99 612 l 124 750 l 265 750 l 313 1010 l 451 1010 l 403 750 l 620 750 l 668 1010 l 806 1010 l 759 750 l 901 750 l 876 612 l 733 612 l 695 399 l 836 399 l 811 260 l 670 260 l 622 0 l 484 0 m 557 399 l 595 612 l 378 612 l 340 399 "},"/":{"ha":526,"x_min":0,"x_max":0,"o":"m 92 -152 l -65 -152 l 460 1057 l 617 1057 "},"\\":{"ha":523,"x_min":0,"x_max":0,"o":"m 135 1057 l 286 1057 l 412 -152 l 260 -152 "},"-":{"ha":647,"x_min":0,"x_max":0,"o":"m 545 347 l 91 347 l 115 494 l 570 494 "},"'":{"ha":296,"x_min":0,"x_max":0,"o":"m 258 638 l 122 638 l 183 1010 l 320 1010 "},"\"":{"ha":550,"x_min":0,"x_max":0,"o":"m 258 638 l 122 638 l 183 1010 l 320 1010 m 512 638 l 376 638 l 437 1010 l 574 1010 "},",":{"ha":410,"x_min":0,"x_max":0,"o":"m 246 84 b 100 -247 211 -40 133 -184 l -20 -247 b 91 83 2 -188 61 -51 l 104 138 l 262 138 "},".":{"ha":403,"x_min":0,"x_max":0,"o":"m 149 -11 b 46 98 88 -11 43 37 b 161 204 49 157 101 204 b 263 98 219 204 267 156 b 149 -11 259 37 207 -11 "},":":{"ha":403,"x_min":0,"x_max":0,"o":"m 149 -11 b 46 98 88 -11 43 37 b 161 204 49 157 101 204 b 263 98 219 204 267 156 b 149 -11 259 37 207 -11 m 239 530 b 136 639 178 530 133 578 b 251 745 139 698 191 745 b 353 639 309 745 357 697 b 239 530 349 578 296 530 "},";":{"ha":410,"x_min":0,"x_max":0,"o":"m 246 84 b 100 -247 211 -40 133 -184 l -20 -247 b 91 83 2 -188 61 -51 l 104 138 l 262 138 m 242 530 b 139 639 181 530 136 578 b 254 745 142 698 194 745 b 356 639 312 745 360 697 b 242 530 352 578 299 530 "},"<":{"ha":934,"x_min":0,"x_max":0,"o":"m 145 472 l 871 784 l 842 609 l 334 405 l 333 397 l 774 193 l 744 18 l 121 330 "},">":{"ha":934,"x_min":0,"x_max":0,"o":"m 84 18 l 114 193 l 621 397 l 622 406 l 182 609 l 211 784 l 835 472 l 811 330 "},"=":{"ha":934,"x_min":0,"x_max":0,"o":"m 129 319 l 785 319 l 761 167 l 104 167 m 182 635 l 838 635 l 812 482 l 156 482 "},"+":{"ha":934,"x_min":0,"x_max":0,"o":"m 381 324 l 116 324 l 143 478 l 406 478 l 450 742 l 605 742 l 561 478 l 825 478 l 799 324 l 536 324 l 492 60 l 337 60 "},"~":{"ha":934,"x_min":0,"x_max":0,"o":"m 93 282 b 341 550 117 461 218 550 b 513 463 405 550 451 525 b 605 409 549 427 570 409 b 707 526 655 409 695 447 l 850 526 b 601 260 826 347 722 260 b 430 348 535 260 490 287 b 337 398 392 385 372 398 b 236 282 289 398 248 365 l 93 282 "},"_":{"ha":650,"x_min":0,"x_max":0,"o":"m 565 -143 l -88 -143 l -64 0 l 588 0 "},"^":{"ha":668,"x_min":0,"x_max":0,"o":"m 356 985 l 513 985 l 649 552 l 510 552 l 422 856 l 415 856 l 230 552 l 78 552 "},"*":{"ha":755,"x_min":0,"x_max":0,"o":"m 372 642 l 187 532 l 145 636 l 337 726 l 172 816 l 250 920 l 400 810 l 422 1010 l 542 1010 l 498 810 l 682 920 l 725 816 l 533 726 l 698 636 l 620 532 l 471 642 l 447 442 l 327 442 "},"°":{"ha":636,"x_min":0,"x_max":0,"o":"m 384 543 b 147 780 253 543 147 649 b 384 1017 147 911 253 1017 b 621 780 515 1017 621 911 b 384 543 621 649 515 543 m 384 669 b 495 780 445 669 495 719 b 384 891 495 841 445 891 b 273 780 323 891 273 841 b 384 669 273 719 323 669 "},"§":{"ha":804,"x_min":0,"x_max":0,"o":"m 574 763 b 477 872 584 826 554 872 b 357 790 413 872 365 837 b 436 679 347 739 397 699 l 611 583 b 725 359 658 557 757 496 b 571 208 706 280 628 225 l 569 206 b 620 31 615 160 631 102 b 303 -204 595 -121 456 -204 b 52 61 129 -204 26 -102 l 214 61 b 330 -52 202 -13 249 -54 b 458 31 388 -51 448 -26 b 380 142 468 90 416 120 l 206 236 b 90 462 156 261 60 325 b 245 614 108 541 182 596 l 245 616 b 195 790 206 662 183 718 b 503 1024 218 925 345 1024 b 734 763 669 1024 759 914 m 572 352 b 506 454 582 394 555 429 l 346 542 b 242 469 312 561 254 524 b 310 365 232 425 261 391 l 467 281 b 572 352 498 263 561 297 "},"%":{"ha":1172,"x_min":0,"x_max":0,"o":"m 608 243 b 858 460 630 360 721 460 b 1035 243 997 460 1057 361 l 1025 189 b 776 -28 1004 73 914 -28 b 598 189 637 -28 577 73 m 189 821 b 439 1038 207 939 303 1038 b 617 821 579 1038 634 939 l 609 767 b 360 551 591 649 497 551 b 182 767 220 551 164 650 m 969 1010 l 1099 1010 l 237 0 l 107 0 m 727 189 b 795 85 718 138 731 85 b 896 189 858 85 886 137 l 906 243 b 839 348 915 295 905 348 b 737 243 777 348 747 295 m 311 767 b 378 663 303 715 315 663 b 479 767 441 663 471 715 l 487 821 b 421 926 495 873 486 926 b 319 821 358 926 327 872 "},"`":{"ha":690,"x_min":0,"x_max":0,"o":"m 320 1083 l 494 1083 l 567 857 l 433 857 "}}}
